HIERARCHY
ROOT Hips
{
	OFFSET -14.64140 90.27770 -84.91600
	CHANNELS 6 Xposition Yposition Zposition Zrotation Xrotation Yrotation
	JOINT Spine
	{
		OFFSET 0.00000 13.20850 -1.60436
		CHANNELS 3 Zrotation Xrotation Yrotation
		JOINT Spine1
		{
			OFFSET 0.00000 8.61716 0.00000
			CHANNELS 3 Zrotation Xrotation Yrotation
			JOINT Spine2
			{
				OFFSET 0.00000 8.61717 0.00000
				CHANNELS 3 Zrotation Xrotation Yrotation
				JOINT Spine3
				{
					OFFSET 0.00000 8.61717 0.00000
					CHANNELS 3 Zrotation Xrotation Yrotation
					JOINT Neck
					{
						OFFSET 0.00000 11.07920 1.10792
						CHANNELS 3 Zrotation Xrotation Yrotation
						JOINT Neck1
						{
							OFFSET 0.00000 7.08032 0.00000
							CHANNELS 3 Zrotation Xrotation Yrotation
							JOINT Head
							{
								OFFSET 0.00000 7.08031 0.00000
								CHANNELS 3 Zrotation Xrotation Yrotation
								End site
								{
									OFFSET 0.00000 0.00000 0.00000
								}
							}
						}
					}
					JOINT RightShoulder
					{
						OFFSET -0.01000 7.91373 5.19711
						CHANNELS 3 Zrotation Xrotation Yrotation
						JOINT RightArm
						{
							OFFSET -18.41580 0.00000 0.00000
							CHANNELS 3 Zrotation Xrotation Yrotation
							JOINT RightForeArm
							{
								OFFSET -29.11090 0.00000 0.00000
								CHANNELS 3 Zrotation Xrotation Yrotation
								JOINT RightHand
								{
									OFFSET -24.65040 0.00000 0.00000
									CHANNELS 3 Zrotation Xrotation Yrotation
									JOINT RightHandThumb1
									{
										OFFSET -5.35114 -0.85590 3.97906
										CHANNELS 3 Zrotation Xrotation Yrotation
										JOINT RightHandThumb2
										{
											OFFSET -4.52789 0.00000 0.00000
											CHANNELS 3 Zrotation Xrotation Yrotation
											JOINT RightHandThumb3
											{
												OFFSET -2.46976 0.00000 0.00000
												CHANNELS 3 Zrotation Xrotation Yrotation
												End site
												{
													OFFSET 0.00000 0.00000 0.00000
												}
											}
										}
									}
									JOINT RightHandIndex1
									{
										OFFSET -14.26970 0.00000 2.88139
										CHANNELS 3 Zrotation Xrotation Yrotation
										JOINT RightHandIndex2
										{
											OFFSET -5.48836 0.00000 0.00000
											CHANNELS 3 Zrotation Xrotation Yrotation
											JOINT RightHandIndex3
											{
												OFFSET -3.01859 0.00000 0.00000
												CHANNELS 3 Zrotation Xrotation Yrotation
												End site
												{
													OFFSET 0.00000 0.00000 0.00000
												}
											}
										}
									}
									JOINT RightHandMiddle1
									{
										OFFSET -14.26970 0.00000 -0.09147
										CHANNELS 3 Zrotation Xrotation Yrotation
										JOINT RightHandMiddle2
										{
											OFFSET -6.17441 0.00000 0.00000
											CHANNELS 3 Zrotation Xrotation Yrotation
											JOINT RightHandMiddle3
											{
												OFFSET -3.56743 0.00000 0.00000
												CHANNELS 3 Zrotation Xrotation Yrotation
												End site
												{
													OFFSET 0.00000 0.00000 0.00000
												}
											}
										}
									}
									JOINT RightHandRing1
									{
										OFFSET -12.69180 0.00000 -3.06433
										CHANNELS 3 Zrotation Xrotation Yrotation
										JOINT RightHandRing2
										{
											OFFSET -5.62556 0.00000 0.00000
											CHANNELS 3 Zrotation Xrotation Yrotation
											JOINT RightHandRing3
											{
												OFFSET -3.56744 0.00000 0.00000
												CHANNELS 3 Zrotation Xrotation Yrotation
												End site
												{
													OFFSET 0.00000 0.00000 0.00000
												}
											}
										}
									}
									JOINT RightHandPinky1
									{
										OFFSET -11.11390 0.00000 -6.03719
										CHANNELS 3 Zrotation Xrotation Yrotation
										JOINT RightHandPinky2
										{
											OFFSET -4.52789 0.00000 0.00000
											CHANNELS 3 Zrotation Xrotation Yrotation
											JOINT RightHandPinky3
											{
												OFFSET -2.46976 0.00000 0.00000
												CHANNELS 3 Zrotation Xrotation Yrotation
												End site
												{
													OFFSET 0.00000 0.00000 0.00000
												}
											}
										}
									}
								}
							}
						}
					}
					JOINT LeftShoulder
					{
						OFFSET 0.01000 7.91373 5.19711
						CHANNELS 3 Zrotation Xrotation Yrotation
						JOINT LeftArm
						{
							OFFSET 18.41580 0.00000 0.00000
							CHANNELS 3 Zrotation Xrotation Yrotation
							JOINT LeftForeArm
							{
								OFFSET 29.11090 0.00000 0.00000
								CHANNELS 3 Zrotation Xrotation Yrotation
								JOINT LeftHand
								{
									OFFSET 24.65040 0.00000 0.00000
									CHANNELS 3 Zrotation Xrotation Yrotation
									JOINT LeftHandThumb1
									{
										OFFSET 5.35114 -0.85590 3.97906
										CHANNELS 3 Zrotation Xrotation Yrotation
										JOINT LeftHandThumb2
										{
											OFFSET 4.52789 0.00000 0.00000
											CHANNELS 3 Zrotation Xrotation Yrotation
											JOINT LeftHandThumb3
											{
												OFFSET 2.46977 0.00000 0.00000
												CHANNELS 3 Zrotation Xrotation Yrotation
												End site
												{
													OFFSET 0.00000 0.00000 0.00000
												}
											}
										}
									}
									JOINT LeftHandIndex1
									{
										OFFSET 14.26970 0.00000 2.88139
										CHANNELS 3 Zrotation Xrotation Yrotation
										JOINT LeftHandIndex2
										{
											OFFSET 5.48836 0.00000 0.00000
											CHANNELS 3 Zrotation Xrotation Yrotation
											JOINT LeftHandIndex3
											{
												OFFSET 3.01859 0.00000 0.00000
												CHANNELS 3 Zrotation Xrotation Yrotation
												End site
												{
													OFFSET 0.00000 0.00000 0.00000
												}
											}
										}
									}
									JOINT LeftHandMiddle1
									{
										OFFSET 14.26970 0.00000 -0.09147
										CHANNELS 3 Zrotation Xrotation Yrotation
										JOINT LeftHandMiddle2
										{
											OFFSET 6.17440 0.00000 0.00000
											CHANNELS 3 Zrotation Xrotation Yrotation
											JOINT LeftHandMiddle3
											{
												OFFSET 3.56744 0.00000 0.00000
												CHANNELS 3 Zrotation Xrotation Yrotation
												End site
												{
													OFFSET 0.00000 0.00000 0.00000
												}
											}
										}
									}
									JOINT LeftHandRing1
									{
										OFFSET 12.69180 0.00000 -3.06433
										CHANNELS 3 Zrotation Xrotation Yrotation
										JOINT LeftHandRing2
										{
											OFFSET 5.62556 0.00000 0.00000
											CHANNELS 3 Zrotation Xrotation Yrotation
											JOINT LeftHandRing3
											{
												OFFSET 3.56744 0.00000 0.00000
												CHANNELS 3 Zrotation Xrotation Yrotation
												End site
												{
													OFFSET 0.00000 0.00000 0.00000
												}
											}
										}
									}
									JOINT LeftHandPinky1
									{
										OFFSET 11.11390 0.00000 -6.03719
										CHANNELS 3 Zrotation Xrotation Yrotation
										JOINT LeftHandPinky2
										{
											OFFSET 4.52789 0.00000 0.00000
											CHANNELS 3 Zrotation Xrotation Yrotation
											JOINT LeftHandPinky3
											{
												OFFSET 2.46976 0.00000 0.00000
												CHANNELS 3 Zrotation Xrotation Yrotation
												End site
												{
													OFFSET 0.00000 0.00000 0.00000
												}
											}
										}
									}
								}
							}
						}
					}
					JOINT pCube4
					{
						OFFSET 0.00000 10.91090 1.10792
						CHANNELS 3 Zrotation Xrotation Yrotation
						End site
						{
							OFFSET 0.00000 0.00000 0.00000
						}
					}
				}
			}
		}
	}
	JOINT RightUpLeg
	{
		OFFSET -9.98441 0.00000 0.00000
		CHANNELS 3 Zrotation Xrotation Yrotation
		JOINT RightLeg
		{
			OFFSET 0.00000 -42.11790 0.00000
			CHANNELS 3 Zrotation Xrotation Yrotation
			JOINT RightFoot
			{
				OFFSET 0.00000 -45.00020 -0.00001
				CHANNELS 3 Zrotation Xrotation Yrotation
				JOINT RightForeFoot
				{
					OFFSET 0.00000 -3.74820 0.00000
					CHANNELS 3 Zrotation Xrotation Yrotation
					JOINT RightToeBase
					{
						OFFSET 0.00000 0.06325 14.43120
						CHANNELS 3 Zrotation Xrotation Yrotation
						End site
						{
							OFFSET 0.00000 0.00000 0.00000
						}
					}
				}
			}
		}
	}
	JOINT LeftUpLeg
	{
		OFFSET 9.98441 0.00000 0.00000
		CHANNELS 3 Zrotation Xrotation Yrotation
		JOINT LeftLeg
		{
			OFFSET 0.00000 -42.11800 0.00000
			CHANNELS 3 Zrotation Xrotation Yrotation
			JOINT LeftFoot
			{
				OFFSET 0.00000 -45.00070 0.00000
				CHANNELS 3 Zrotation Xrotation Yrotation
				JOINT LeftForeFoot
				{
					OFFSET 0.00000 -3.74824 0.00000
					CHANNELS 3 Zrotation Xrotation Yrotation
					JOINT LeftToeBase
					{
						OFFSET 0.00000 0.06325 14.43110
						CHANNELS 3 Zrotation Xrotation Yrotation
						End site
						{
							OFFSET 0.00000 0.00000 0.00000
						}
					}
				}
			}
		}
	}
}
MOTION
Frames: 4
Frame Time: 0.050000
-0.03786470757093574 -0.02352499289269409 -0.021377465871347062 -0.03543907981520173 0.016280316512340177 -0.039446877606946325 5.910611344094535 3.0675419385856015 -2.339934504548378 -0.6665457277791174 3.4393257971391473 0.4095564700226604 -0.5434401798659653 -1.042490559274428 0.6262079865986654 -0.24299473131809937 -0.4786741673306123 -0.3058171292148186 0.18452915496668099 11.283961051955233 -1.697036798840503 0.4361000450075389 -0.6979590513634553 -3.2222152129747395 1.0097627739852506 -16.989354819998724 -0.28362069215972086 -9.306139798286358 3.3344385932749407 -18.870447284918278 80.42491841142298 1.5950046685298276 -3.4571084174360687 0.5901667424393295 7.701761455010379 56.15095157210929 17.57569465250651 -0.3653986451892649 -2.840419824014853 4.527027008795135 -0.14866582921921478 -1.5779447428779125 -0.03165835536549602 0.04126598619764204 -56.195945509737975 -0.010258114589135576 0.023631887870460885 -56.216880834276544 -38.81160903633146 0.023648685186077854 0.044641148055874096 0.01630349794800161 -0.014106026771705147 -0.03401006463578679 0.0067353194727865955 0.02715006121922226 0.0022470127652476275 -36.67928889184486 -0.03926329219920992 0.0012730750031659161 -0.0005738180070472528 0.0034152548415102334 -0.04331220227776489 0.04736688782819393 -0.003335180464344272 0.045889152913079954 -19.7722522790652 -0.011232547006929779 -0.02844050610192099 -0.0460212315312848 -0.014654878626651312 0.03391492249850433 -0.011485868458911117 0.023652910231669554 0.016734612131128593 24.055767961198885 0.010685169615804435 0.04493792691279545 28.88888527350437 -0.03350639410742198 0.002621170050779988 28.858638760896767 -0.04576529613437576 0.035751523500652485 8.648081087010887 2.2311174717496454 15.37097501519712 -75.69684066930353 15.286692894471438 -5.617472713560641 3.224313959769802 8.271176748165736 -44.54231227984197 -20.000874056098496 -0.21436196828534762 1.0692942912374757 -0.5142823928923832 0.044564170361156175 -8.167263152021043 0.026407787326573763 -0.024951155490742023 44.58766396959976 -0.04874856071493391 -0.004952283193846225 44.588024641957226 12.478953290556795 0.011111104110100571 0.0029301760508945135 -0.03025392914384994 0.038900288345959814 0.04885574697279185 -0.01751413493030432 -0.037841622986847345 -0.042527457426204854 11.116064167014729 -0.015190828849663421 -0.016325841463149762 0.049823338455169924 0.0069529597408945 0.004509406911474036 0.014174826676339994 -0.03591534119509847 -0.02453771245548603 4.809128792716506 0.018807507079103777 0.026068511629873576 -0.010825086957256324 0.010991975048269098 0.02830322171494406 0.009964524541683126 0.0072229192657450834 -0.005314723738157785 -5.610347012891717 0.027717979959212602 -0.003932150480400187 -6.700085893049371 -0.034496667049654706 0.024586254714312805 -6.753393426388114 -0.01759632933707015 0.010999334251446443 0.013792984065507422 -0.016379983191980217 -0.03181571627952339 8.069539041021782 3.5094461282707714 -19.246456245070863 0.01825071019435114 10.35562960425253 0.03764467026272417 -5.642271157138544 -15.653840875326713 3.1759635603874683 -0.03186127541812407 0.036275374836208865 0.010955615475918817 0.031601076242918684 4.650546546854112 0.019837851116425546 12.452889014036153 -8.239823615598416 6.8771636541092755 -0.020850919406478593 46.4126900935499 0.0352255948683281 -4.3569147986909575 -14.72974929944692 -3.8723409954563777 0.012854230168317337 -0.015309975616517932 -0.03478994510947226 -0.0022325278551820127 -10.742788749748602 0.045967655527447034 
-0.04489562437556045 0.02309049898206647 0.01187872055910804 -0.025459025138640224 0.03748149551151054 0.029096497219969528 5.767887491329333 3.0521498019002933 -2.35713431924951 -0.7026212036811782 3.4595639205752002 0.36382265844948775 -0.5658453269422375 -1.0202066387153808 0.6081669840168124 -0.27560965923993197 -0.5107791449775863 -0.2760911000272937 0.18807255141051518 11.467872397477747 -1.7385415084556646 0.4503755789377991 -0.6583409645873353 -3.3032688819798746 1.0307615016740794 -17.008897422937075 -0.31247759632244043 -9.501907127989213 3.3935377276961387 -18.9615257141943 79.36702541740372 1.2003741274229376 -3.419276555775672 1.5492773554148507 7.312857615641114 59.10111049616384 17.290993139081326 -0.3322165704106729 -3.0105819269241323 4.571783574873495 -0.1096446202563684 -1.6291710932712444 -0.011434424313914235 -0.04232495810804742 -56.22905457690683 -0.003387697846461842 -0.010991613063926561 -56.242489990579344 -38.73170221599278 -0.017940787459817777 0.023192773612139388 0.01549694120601698 0.004919678123711113 0.020747828501443046 0.029660828280041057 -0.015880838084380327 -0.03875393011509179 -36.68477433411069 0.041276516669898684 -0.02429170887817719 0.00019741617087596895 0.015183169280579292 0.048574668955826156 -0.01023130376426258 0.04585575775683653 -0.005508381258899168 -19.782767124092967 -0.0031111189419910437 -0.03926852815236661 -0.04763492467931811 0.02584387704212348 -0.04097195065168507 0.014523756327129161 0.026438868936359043 -0.00938742042119626 24.069098139108625 0.008885671786496085 0.033429825672064865 28.84794592094014 0.020392225971608523 -0.004189707811827255 28.822680943279295 0.033371517377465916 -0.02737136493516022 8.88485563817512 2.21435109029975 15.651685651601454 -75.01002629867689 14.306883025126396 -5.5820834337891165 2.399046116818639 8.184246268793155 -45.51049083134418 -19.826783307583156 -0.34111181067676294 0.9356592586968544 -0.46738772249274896 0.05545778141994816 -8.170905282016967 -0.01055600827739047 -0.007584089200082808 44.555741333852446 -0.005481190096266018 0.04083812800887073 44.56874374429308 12.471820070003512 0.0027513911774799202 0.04523679333874057 0.03141606178812895 0.04863797249007357 -0.041300403489755014 -0.01960373137060525 -0.025638905788214823 0.012131984335272641 11.124472248541547 0.04096475421230654 -0.03968975661607074 -0.00014747466617265125 -0.03780184880512159 0.04246267297236681 -0.04050324615050056 -0.014485433206909022 -0.014733555857140925 4.8090096355138785 -0.03667142900899287 -0.046085608264610126 -0.045584305337156114 0.040380964541339465 -0.04132841597323046 -0.022232306391393265 0.04235227566007798 -0.0155319224398532 -5.632304728998576 0.018141606298116533 0.01697497117156766 -6.687923369050387 0.03358898983338149 0.003706676296337975 -6.743908280601395 -0.00946644471649011 -0.024363324265287124 -0.00032649742080747575 0.040064537034800354 -0.0020504958237063447 8.058020866387539 3.5029230202569765 -19.183897024659164 0.043874159409237744 10.361737892149913 0.014614560613169935 -5.593703641446374 -15.687147769803273 3.159779446706339 -0.010588927646681621 0.043305767554927675 -0.021735259909722637 0.0355175523631755 4.730166142703502 -0.047656959126419866 12.507766495112968 -8.245581664833368 6.858809310764514 0.028607929111618725 46.330396753172366 -0.008932037266067946 -4.363726755096512 -14.721053479985937 -3.8584610292318615 -0.016164410418548762 0.012575587220526754 0.003399995905895695 0.008666534951308296 -10.754520635769355 -0.0493193585619832 
0.03446700167967453 -0.03309686382749801 -0.02677594077175672 0.0019743329565175527 0.001981796027731767 -0.049701068902903794 5.578061925603069 3.002776431945887 -2.300876445623919 -0.756459266633364 3.5279180998986615 0.4138586682479759 -0.5525075562496399 -1.0645244252788735 0.7029913463131502 -0.2993765088801156 -0.5267516661256763 -0.31289996275018095 0.16600365432636854 11.705282006242893 -1.7112622337939354 0.4748513571663574 -0.6031661376663199 -3.3924869236719393 1.0596508117410128 -16.944048598692426 -0.2907821963594486 -9.625203878599034 3.337458982036474 -19.040562293542877 78.08422634038334 0.8291620986959448 -2.8933016212967546 3.384715987052612 7.021909627230996 63.92733274916649 17.10466434920994 -0.3862683807495875 -3.300881766687292 4.496740783479504 -0.15291150733309314 -1.590583808770005 -0.02093293599221239 0.016277472601621417 -56.268418598460755 0.03132058903198586 -0.04477660127996677 -56.218419406810646 -38.77725226885327 -0.012121435383483323 0.009806519239539154 0.0335840909545262 -0.04802492081083413 -0.02517814125530792 0.006396895522710475 0.010222479681831912 -0.04792638550874939 -36.716000352851694 -0.025768709703781412 -0.04327741872536319 -0.03795888305262934 -0.01302382869127211 -0.011285113246598 -0.006158846673310322 -0.0336365732214412 0.03584344867089228 -19.719154320854383 -0.009571342996632006 -0.0438306445296741 -0.04475080876641922 0.007323688191431702 0.016569047402161023 -0.005399574965370248 -0.008278552624300411 -0.022847930044130726 24.045744914400615 0.029311388795154155 -0.026841226093263455 28.820181619078497 -0.031039083184082474 -0.021419770207677404 28.85165964284508 -0.023376357488978355 0.03326685008100376 9.025375699937104 2.213197552494077 15.742056885606658 -74.41550364382793 13.660469853081677 -5.646214854927305 1.3682862620694471 8.208199810597906 -46.62510360006291 -19.874522555306854 -0.22015872904212538 0.7434499941959721 -0.45932764332284304 0.03948039911149852 -8.075364402124016 0.0019283087923632712 -0.030806924943676844 44.58318454243782 -0.03078415190509992 -0.042300998472219915 44.59447683721864 12.49574882849108 -0.01858865360774689 -0.00885191628642181 0.012352319195287094 -0.02494371284210451 -0.03363494849238748 -0.009595984102802978 -0.0006455427680134979 -0.015264774194551606 11.12139183837341 -0.030464396430791373 0.0053299461966144724 0.03464958385746296 0.025085168164570883 -0.01291872458904461 0.012621269090597893 0.01522888925437373 0.019546971280019754 4.763003802167332 0.002234260905171566 -0.005857489257585617 -0.012362459917906443 -0.027731621154517827 -0.03712302195973177 -0.024550040976746294 -0.016241890014231136 0.0069483750656127346 -5.576001765717979 0.02527020005868602 0.04967638431962363 -6.692555136371371 0.030036340033308104 -0.003376599798376858 -6.686357407464291 -0.04046040517518744 -0.002539136914258777 -0.01244456222632811 0.04965590643064416 -0.002753471817922349 8.009302908780029 3.4881696386758785 -19.234846589604846 0.004059125786175403 10.42933808246134 0.03985640316580644 -5.653706334253579 -15.645803748522985 3.1894781077628798 0.036913080375035885 0.035153047531064574 -0.044302142210936236 -0.010847762322958285 4.663260045446756 0.03321429904940638 12.446238148029181 -8.270275837622282 6.859901274491636 0.03066363821836643 46.33655943592303 0.030371862720571022 -4.322742425743661 -14.738599392980536 -3.8629893715084074 0.007224696332230123 0.015392207437549495 -0.021438707902383676 0.015574928736268737 -10.719260494562011 0.03441445840800693 
-0.020984774269919626 -0.028209991755400517 0.03159549741155784 0.004363651924790167 -0.023281688207961945 0.008303592288795828 5.299374505648626 2.973500075313478 -2.3218090761422796 -0.7918450537289847 3.5582469694369347 0.4262831442051585 -0.5720593630203313 -1.1524143175270074 0.799538147105956 -0.33760506972376064 -0.5226681011744997 -0.28174451031739034 0.2620675702344724 12.027996137007907 -1.7365405705637296 0.48083946834983016 -0.6320392987465605 -3.608516703491149 1.1182978992952575 -17.02859738311178 -0.391145851472101 -9.738120132381066 3.350956197752426 -19.07381755456818 76.91097505532817 0.4373996686613857 -1.9742687427544297 5.126108970904849 6.859706372803747 68.80011831422752 17.3092113835509 -0.48101451487507574 -3.8659223641008174 4.520818259871026 -0.17012222152999995 -1.5633966798259538 -0.033057204140983 -0.03644662895303124 -56.22851065138831 -0.036275622203585586 -0.0471608256837585 -56.24912907001452 -38.79294900007106 0.007374687332878816 0.02968892910702088 -0.006259040653561419 -0.04127988605866667 -0.0049007183000997195 0.02931224407473012 -0.014336437179365903 -0.004710548514805895 -36.726705296068126 0.022141358591481156 -0.016041142657584197 -0.006060067947567727 0.04912321927385015 0.017994582801521154 0.04648125658133438 0.006937914398523143 -0.0007034594627804142 -19.733413658283666 -0.02144598764835705 -0.021608291993757908 -0.01063315835292667 0.004537536620366661 0.03063953100034364 -0.04894074627030643 0.013254433964629813 -0.02642988647656735 24.087520307893715 0.03363915869919764 -0.0025308374918701455 28.87077377574734 0.03550466109905006 0.011139694704262522 28.854713800265817 -0.035680219420255295 0.0457131650403488 9.025986729525266 2.2185242827350513 15.864224774474227 -74.0323632431432 13.229185340900983 -5.799158882725906 0.38039542601278237 8.298453214995485 -47.458931122678706 -20.007717009312067 -0.05331554428533266 0.4848666951256351 -0.44179067968273994 0.04266941272635412 -8.156503779758655 0.03364678582058439 0.0054633788112139385 44.54992912396445 -0.014186455090320006 0.003728330317673706 44.600617463687904 12.494476820569798 0.02879133986818522 -0.03494419273296163 -0.03372386806974136 -0.010441842107950402 -0.03785761794113754 -0.009140066418804861 -0.045487385088182675 -0.03302321718911175 11.070216024740128 0.020444257638471585 0.024319166473319876 0.04892900684148501 0.012742512858900611 -0.019042965289359153 0.022021028368615785 0.01945262422620316 -0.0018963001275795408 4.773027718223708 -0.04587692018076783 0.025925068172262745 0.02152358165640179 -0.017581001989031727 0.024325745117461852 -0.005822890855389522 -0.03256092015584571 0.008750330053734007 -5.613302698606909 -0.02611306241743086 -0.046902725678275754 -6.676482191046346 -0.04922472343379955 0.002510562866451371 -6.71736571044609 0.023242761167097684 -0.009422770483468198 -0.04607192174345282 0.0023087579836108168 0.04783106872851957 8.077997881235603 3.5378576022243267 -19.25535402162267 -0.015200305496948242 10.40590285735168 0.0515834853581494 -5.651516448757619 -15.67089426546522 3.242193071100616 -0.006333887506871369 -0.020532811933750197 -0.0004032694422159059 -0.025900745841285454 4.724448423008158 -0.023325673531946634 12.46710753038129 -8.212207267599 6.84765754190822 -0.036069204633287354 46.366217386512155 -0.00256412594794925 -4.351166836150225 -14.727899343336366 -3.8404987670927357 0.039174170990246907 -0.01350076545548674 0.006533079633635188 0.019413721941751283 -10.71386685203355 -0.01573670379165353 
